<?xml version="1.0" encoding="UTF-8"?>
<svg xmlns="http://www.w3.org/2000/svg" viewBox="0 0 340 290.62" width="340" height="290.62">
  <!-- Símbolo (átomo + órbitas) -->
  <svg x="20" y="20" width="300" height="168.15" viewBox="0 0 1281 718" overflow="visible">
    <defs>
    <linearGradient id="bg" x1="0" y1="0" x2="1" y2="1">
      <stop offset="0" stop-color="#06172A"/><stop offset="0.55" stop-color="#020B17"/><stop offset="1" stop-color="#05172A"/>
    </linearGradient>
    <linearGradient id="blueGrad" x1="40" y1="620" x2="1110" y2="80" gradientUnits="userSpaceOnUse">
      <stop offset="0" stop-color="#1D73DA"/><stop offset="0.36" stop-color="#1594E8"/><stop offset="0.60" stop-color="#19BFE7"/><stop offset="0.78" stop-color="#19D4DF"/><stop offset="1" stop-color="#1682D7"/>
    </linearGradient>
    <linearGradient id="cyanGrad" x1="120" y1="120" x2="1180" y2="620" gradientUnits="userSpaceOnUse">
      <stop offset="0" stop-color="#38D6CC"/><stop offset="0.40" stop-color="#20C7D2"/><stop offset="0.72" stop-color="#1EDDDD"/><stop offset="1" stop-color="#2FD1BD"/>
    </linearGradient>
    <linearGradient id="connectorGrad" x1="996" y1="360" x2="1056" y2="292" gradientUnits="userSpaceOnUse">
      <stop offset="0" stop-color="#1EDCDD"/><stop offset="0.72" stop-color="#24CFC5"/><stop offset="1" stop-color="#6CCF65"/>
    </linearGradient>
    <linearGradient id="arrowGrad" x1="1010" y1="246" x2="1096" y2="329" gradientUnits="userSpaceOnUse">
      <stop offset="0" stop-color="#B7EA63"/><stop offset="1" stop-color="#7FC64A"/>
    </linearGradient>
    <radialGradient id="nucleus" cx="47%" cy="40%" r="65%">
      <stop offset="0" stop-color="#FFFFFF"/><stop offset="0.72" stop-color="#F8F8F6"/><stop offset="1" stop-color="#DCDCDC"/>
    </radialGradient>
    <filter id="glow" x="-5%" y="-7%" width="110%" height="114%"><feGaussianBlur stdDeviation="2.0" result="b"/><feMerge><feMergeNode in="b"/><feMergeNode in="SourceGraphic"/></feMerge></filter>
    <filter id="soft" x="-20%" y="-20%" width="140%" height="140%"><feGaussianBlur stdDeviation="1.5" result="b"/><feMerge><feMergeNode in="b"/><feMergeNode in="SourceGraphic"/></feMerge></filter>
    <filter id="whiteGlow" x="-35%" y="-35%" width="170%" height="170%"><feGaussianBlur stdDeviation="3.0" result="b"/><feMerge><feMergeNode in="b"/><feMergeNode in="SourceGraphic"/></feMerge></filter>
  </defs>
  <g id="orbitas" filter="url(#glow)">
    <path id="orbita-ciano" d="M 224.38,319.18 L 220.54,315.92 L 216.76,312.66 L 213.04,309.39 L 209.38,306.11 L 205.77,302.82 L 202.23,299.53 L 198.74,296.23 L 195.31,292.92 L 191.95,289.61 L 188.66,286.30 L 185.43,282.98 L 182.26,279.67 L 179.17,276.36 L 176.15,273.05 L 173.20,269.74 L 170.32,266.44 L 167.51,263.14 L 164.79,259.86 L 162.13,256.58 L 159.56,253.31 L 157.07,250.05 L 154.66,246.80 L 152.33,243.57 L 150.09,240.36 L 147.93,237.16 L 145.86,233.98 L 143.87,230.81 L 141.98,227.67 L 140.17,224.55 L 138.46,221.46 L 136.84,218.38 L 135.32,215.34 L 133.89,212.32 L 132.56,209.33 L 131.33,206.37 L 130.20,203.44 L 129.17,200.55 L 128.23,197.69 L 127.41,194.87 L 126.68,192.08 L 126.06,189.34 L 125.55,186.63 L 125.14,183.96 L 124.83,181.34 L 124.64,178.76 L 124.55,176.23 L 124.57,173.74 L 124.71,171.30 L 124.95,168.91 L 125.30,166.56 L 125.76,164.26 L 126.33,162.00 L 127.02,159.79 L 127.82,157.63 L 128.74,155.52 L 129.78,153.45 L 130.94,151.42 L 132.22,149.44 L 133.62,147.50 L 135.16,145.61 L 136.83,143.77 L 138.62,141.97 L 140.56,140.22 L 142.64,138.52 L 144.85,136.87 L 147.21,135.27 L 149.72,133.73 L 152.37,132.24 L 155.18,130.81 L 158.13,129.43 L 161.29,128.10 L 165.51,126.34 L 169.76,124.67 L 174.08,123.10 L 178.47,121.60 L 182.93,120.20 L 187.44,118.87 L 192.02,117.63 L 196.66,116.48 L 201.35,115.40 L 206.09,114.40 L 210.89,113.48 L 215.74,112.63 L 220.63,111.87 L 225.57,111.17 L 230.55,110.56 L 235.57,110.01 L 240.63,109.54 L 245.73,109.14 L 250.86,108.80 L 256.02,108.54 L 261.21,108.34 L 266.43,108.21 L 271.67,108.14 L 276.93,108.14 L 282.22,108.20 L 287.52,108.32 L 292.84,108.50 L 298.17,108.74 L 303.51,109.04 L 308.87,109.39 L 314.23,109.80 L 319.59,110.27 L 324.96,110.79 L 330.32,111.36 L 335.69,111.98 L 341.05,112.65 L 346.40,113.37 L 351.74,114.13 L 357.08,114.94 L 362.40,115.80 L 367.70,116.70 L 372.99,117.64 L 378.26,118.63 L 383.50,119.65 L 388.72,120.72 L 393.92,121.82 L 399.09,122.95 L 404.22,124.13 L 409.32,125.33 L 414.39,126.57 L 419.42,127.84 L 424.41,129.14 L 429.36,130.47 L 434.26,131.83 L 439.12,133.22 L 443.92,134.63 L 448.68,136.06 L 453.38,137.52 L 458.03,139.00 L 462.62,140.50 L 467.16,142.02 L 471.62,143.56 L 476.03,145.12 L 480.37,146.69 L 484.64,148.28 L 488.84,149.88 L 492.96,151.49 L 497.01,153.11 L 500.98,154.74 L 504.88,156.38 L 508.87,158.11 L 514.92,160.09 L 520.92,162.07 L 527.00,164.11 L 533.13,166.19 L 539.33,168.32 L 545.59,170.49 L 551.91,172.71 L 558.29,174.97 L 564.73,177.27 L 571.22,179.62 L 577.76,182.00 L 584.35,184.43 L 590.99,186.89 L 597.68,189.40 L 604.41,191.94 L 611.18,194.51 L 618.00,197.13 L 624.85,199.77 L 631.74,202.45 L 638.66,205.17 L 645.62,207.91 L 652.61,210.69 L 659.62,213.50 L 666.67,216.33 L 673.74,219.20 L 680.83,222.09 L 687.94,225.01 L 695.07,227.95 L 702.22,230.92 L 709.39,233.92 L 716.57,236.94 L 723.76,239.98 L 730.96,243.04 L 738.17,246.12 L 745.38,249.22 L 752.60,252.34 L 759.82,255.48 L 767.04,258.63 L 774.26,261.80 L 781.47,264.99 L 788.68,268.19 L 795.88,271.40 L 803.07,274.63 L 810.25,277.86 L 817.42,281.11 L 824.57,284.37 L 831.71,287.63 L 838.82,290.91 L 845.92,294.19 L 852.99,297.48 L 860.04,300.77 L 867.06,304.06 L 874.05,307.36 L 881.01,310.67 L 887.94,313.97 L 894.83,317.27 L 901.69,320.58 L 908.51,323.88 L 915.29,327.18 L 922.03,330.48 L 928.72,333.77 L 935.37,337.06 L 941.97,340.34 L 948.52,343.61 L 955.02,346.88 L 961.47,350.14 L 967.86,353.39 L 974.19,356.62 L 980.46,359.85 L 986.68,363.06 L 992.56,366.12 L 997.65,369.41 L 1002.96,372.89 L 1008.24,376.40 L 1013.48,379.95 L 1018.67,383.54 L 1023.83,387.16 L 1028.93,390.81 L 1033.99,394.48 L 1038.99,398.19 L 1043.94,401.91 L 1048.83,405.67 L 1053.66,409.44 L 1058.42,413.23 L 1063.12,417.04 L 1067.74,420.87 L 1072.30,424.71 L 1076.77,428.57 L 1081.17,432.43 L 1085.49,436.30 L 1089.72,440.19 L 1093.86,444.07 L 1097.91,447.96 L 1101.87,451.85 L 1105.73,455.74 L 1109.49,459.63 L 1113.15,463.51 L 1116.71,467.38 L 1120.15,471.25 L 1123.49,475.10 L 1126.71,478.95 L 1129.81,482.77 L 1132.80,486.58 L 1135.66,490.37 L 1138.39,494.14 L 1141.00,497.88 L 1143.48,501.59 L 1145.82,505.28 L 1148.03,508.93 L 1150.10,512.55 L 1152.03,516.13 L 1153.82,519.66 L 1155.46,523.16 L 1156.95,526.60 L 1158.30,530.00 L 1159.49,533.34 L 1160.54,536.62 L 1161.43,539.85 L 1162.17,543.02 L 1162.76,546.12 L 1163.20,549.16 L 1163.49,552.13 L 1163.63,555.04 L 1163.62,557.88 L 1163.47,560.66 L 1163.16,563.37 L 1162.71,566.03 L 1162.10,568.64 L 1161.35,571.19 L 1160.43,573.71 L 1159.36,576.19 L 1158.12,578.63 L 1156.71,581.05 L 1155.12,583.44 L 1153.33,585.80 L 1151.35,588.15 L 1149.17,590.47 L 1146.76,592.76 L 1144.14,595.03 L 1141.29,597.26 L 1138.21,599.46 L 1135.36,601.35 L 1130.66,603.55 L 1125.48,605.83 L 1120.20,608.00 L 1114.83,610.07 L 1109.37,612.02 L 1103.82,613.87 L 1098.19,615.61 L 1092.47,617.24 L 1086.68,618.77 L 1080.80,620.19 L 1074.86,621.51 L 1068.83,622.72 L 1062.74,623.84 L 1056.59,624.85 L 1050.37,625.76 L 1044.08,626.58 L 1037.74,627.29 L 1031.35,627.91 L 1024.90,628.44 L 1018.39,628.86 L 1011.85,629.20 L 1005.25,629.44 L 998.62,629.59 L 991.94,629.65 L 985.23,629.62 L 978.49,629.51 L 971.71,629.30 L 964.91,629.01 L 958.08,628.64 L 951.22,628.18 L 944.35,627.64 L 937.46,627.02 L 930.56,626.32 L 923.64,625.54 L 916.71,624.69 L 909.78,623.76 L 902.85,622.75 L 895.91,621.67 L 888.98,620.52 L 882.05,619.30 L 875.13,618.00 L 868.22,616.64 L 861.32,615.21 L 854.44,613.72 L 847.58,612.16 L 840.74,610.54 L 833.92,608.85 L 827.13,607.11 L 820.36,605.30 L 813.63,603.44 L 806.94,601.52 L 800.28,599.55 L 793.66,597.52 L 787.09,595.44 L 780.56,593.31 L 774.08,591.12 L 767.65,588.89 L 761.28,586.61 L 754.96,584.28 L 748.70,581.91 L 742.50,579.50 L 736.37,577.04 L 730.30,574.54 L 724.30,572.01 L 718.38,569.43 L 712.53,566.82 L 706.76,564.17 L 701.08,561.49 L 695.47,558.78 L 689.95,556.03 L 684.03,553.02 L 676.75,550.77 L 669.86,548.63 L 662.95,546.47 L 656.01,544.27 L 649.06,542.05 L 642.08,539.79 L 635.09,537.51 L 628.08,535.19 L 621.06,532.84 L 614.02,530.46 L 606.97,528.06 L 599.92,525.61 L 592.85,523.14 L 585.78,520.64 L 578.71,518.10 L 571.63,515.53 L 564.55,512.93 L 557.47,510.30 L 550.39,507.64 L 543.31,504.94 L 536.24,502.21 L 529.18,499.44 L 522.12,496.65 L 515.07,493.81 L 508.04,490.95 L 501.01,488.05 L 494.00,485.12 L 487.01,482.15 L 480.04,479.15 L 473.08,476.11 L 466.14,473.04 L 459.23,469.93 L 452.34,466.79 L 445.48,463.62 L 438.64,460.40 L 431.84,457.16 L 425.06,453.87 L 418.31,450.55 L 411.60,447.20 L 404.93,443.81 L 398.29,440.38 L 391.69,436.91 L 385.13,433.41 L 378.61,429.87 L 372.13,426.30 L 365.70,422.68 L 359.31,419.03 L 352.98,415.34 L 346.69,411.62 L 340.45,407.85 L 334.27,404.05 L 328.14,400.21 L 322.07,396.34 L 316.05,392.42 L 310.09,388.46 L 304.20,384.47 L 298.36,380.44 L 292.60,376.36 L 286.89,372.25 L 281.25,368.10 L 275.69,363.91 L 270.19,359.68 L 264.76,355.41 L 259.41,351.10 L 254.13,346.76 L 248.93,342.37 L 243.81,337.94 L 238.77,333.47 L 233.80,328.95 L 228.93,324.40 L 224.12,319.80 L 219.88,324.20 L 224.71,328.85 L 229.63,333.47 L 234.64,338.05 L 239.73,342.58 L 244.89,347.08 L 250.13,351.53 L 255.45,355.95 L 260.85,360.32 L 266.31,364.65 L 271.85,368.94 L 277.45,373.19 L 283.12,377.40 L 288.86,381.58 L 294.67,385.71 L 300.53,389.80 L 306.46,393.86 L 312.45,397.87 L 318.49,401.85 L 324.59,405.79 L 330.75,409.69 L 336.96,413.55 L 343.22,417.38 L 349.53,421.17 L 355.89,424.92 L 362.30,428.64 L 368.75,432.31 L 375.25,435.96 L 381.79,439.56 L 388.37,443.13 L 394.99,446.66 L 401.64,450.16 L 408.33,453.62 L 415.06,457.05 L 421.82,460.44 L 428.61,463.80 L 435.43,467.12 L 442.27,470.41 L 449.15,473.67 L 456.05,476.89 L 462.97,480.07 L 469.91,483.22 L 476.87,486.34 L 483.86,489.43 L 490.85,492.48 L 497.87,495.50 L 504.90,498.49 L 511.94,501.45 L 518.99,504.37 L 526.04,507.26 L 533.11,510.12 L 540.18,512.95 L 547.26,515.74 L 554.34,518.51 L 561.42,521.24 L 568.50,523.94 L 575.57,526.61 L 582.65,529.26 L 589.71,531.87 L 596.78,534.45 L 603.83,537.00 L 610.87,539.52 L 617.90,542.01 L 624.92,544.47 L 631.92,546.90 L 638.91,549.31 L 645.87,551.68 L 652.82,554.03 L 659.75,556.35 L 666.65,558.63 L 673.53,560.89 L 679.97,562.98 L 684.96,565.69 L 690.52,568.60 L 696.18,571.48 L 701.91,574.33 L 707.73,577.14 L 713.63,579.92 L 719.60,582.66 L 725.65,585.37 L 731.77,588.04 L 737.96,590.66 L 744.21,593.25 L 750.53,595.79 L 756.90,598.28 L 763.34,600.74 L 769.83,603.14 L 776.38,605.49 L 782.97,607.80 L 789.62,610.05 L 796.31,612.26 L 803.04,614.40 L 809.81,616.50 L 816.62,618.53 L 823.47,620.51 L 830.35,622.43 L 837.26,624.29 L 844.20,626.08 L 851.16,627.81 L 858.14,629.48 L 865.15,631.08 L 872.17,632.61 L 879.21,634.08 L 886.26,635.47 L 893.32,636.79 L 900.39,638.04 L 907.46,639.21 L 914.54,640.31 L 921.61,641.32 L 928.69,642.26 L 935.76,643.12 L 942.82,643.90 L 949.87,644.59 L 956.90,645.20 L 963.93,645.72 L 970.93,646.16 L 977.92,646.50 L 984.88,646.76 L 991.82,646.92 L 998.73,646.98 L 1005.61,646.96 L 1012.46,646.83 L 1019.27,646.61 L 1026.04,646.28 L 1032.78,645.86 L 1039.47,645.33 L 1046.12,644.69 L 1052.72,643.95 L 1059.27,643.10 L 1065.77,642.14 L 1072.21,641.07 L 1078.59,639.88 L 1084.92,638.58 L 1091.18,637.17 L 1097.37,635.63 L 1103.50,633.97 L 1109.56,632.20 L 1115.54,630.29 L 1121.45,628.26 L 1127.27,626.11 L 1133.02,623.82 L 1138.68,621.40 L 1144.64,618.65 L 1149.17,615.82 L 1153.00,613.16 L 1156.61,610.40 L 1160.01,607.54 L 1163.18,604.57 L 1166.13,601.51 L 1168.86,598.34 L 1171.36,595.08 L 1173.64,591.72 L 1175.68,588.28 L 1177.49,584.75 L 1179.06,581.15 L 1180.40,577.48 L 1181.51,573.75 L 1182.38,569.97 L 1183.03,566.15 L 1183.45,562.30 L 1183.65,558.42 L 1183.64,554.51 L 1183.43,550.59 L 1183.01,546.66 L 1182.40,542.71 L 1181.60,538.76 L 1180.63,534.80 L 1179.47,530.84 L 1178.15,526.87 L 1176.67,522.90 L 1175.02,518.92 L 1173.22,514.94 L 1171.27,510.96 L 1169.17,506.98 L 1166.92,502.99 L 1164.54,499.00 L 1162.02,495.00 L 1159.37,491.01 L 1156.58,487.01 L 1153.67,483.01 L 1150.64,479.02 L 1147.49,475.02 L 1144.21,471.02 L 1140.82,467.03 L 1137.32,463.04 L 1133.72,459.05 L 1130.00,455.07 L 1126.18,451.10 L 1122.26,447.13 L 1118.24,443.17 L 1114.13,439.22 L 1109.92,435.28 L 1105.62,431.36 L 1101.24,427.44 L 1096.78,423.54 L 1092.23,419.66 L 1087.60,415.79 L 1082.90,411.95 L 1078.12,408.12 L 1073.28,404.31 L 1068.37,400.53 L 1063.39,396.77 L 1058.36,393.03 L 1053.26,389.33 L 1048.11,385.65 L 1042.90,382.00 L 1037.65,378.38 L 1032.35,374.79 L 1027.00,371.24 L 1021.61,367.72 L 1016.18,364.24 L 1010.72,360.80 L 1005.23,357.40 L 999.44,353.88 L 992.92,350.67 L 986.61,347.59 L 980.23,344.50 L 973.80,341.39 L 967.31,338.27 L 960.77,335.15 L 954.18,332.01 L 947.54,328.87 L 940.84,325.72 L 934.11,322.56 L 927.32,319.40 L 920.50,316.23 L 913.63,313.06 L 906.73,309.89 L 899.78,306.71 L 892.81,303.53 L 885.80,300.35 L 878.76,297.17 L 871.69,293.99 L 864.59,290.82 L 857.47,287.64 L 850.32,284.47 L 843.15,281.31 L 835.96,278.15 L 828.76,275.00 L 821.54,271.85 L 814.30,268.71 L 807.06,265.58 L 799.80,262.46 L 792.53,259.35 L 785.26,256.25 L 777.98,253.17 L 770.71,250.09 L 763.43,247.03 L 756.15,243.99 L 748.87,240.96 L 741.60,237.95 L 734.34,234.96 L 727.09,231.98 L 719.84,229.03 L 712.61,226.09 L 705.40,223.17 L 698.20,220.28 L 691.02,217.41 L 683.86,214.57 L 676.72,211.75 L 669.60,208.95 L 662.52,206.18 L 655.46,203.44 L 648.43,200.72 L 641.43,198.04 L 634.46,195.39 L 627.53,192.76 L 620.64,190.17 L 613.79,187.61 L 606.97,185.09 L 600.20,182.60 L 593.48,180.14 L 586.80,177.72 L 580.17,175.34 L 573.60,173.00 L 567.07,170.69 L 560.60,168.43 L 554.18,166.20 L 547.83,164.02 L 541.53,161.88 L 535.29,159.78 L 529.12,157.73 L 523.02,155.73 L 516.98,153.77 L 511.13,151.89 L 507.44,150.33 L 503.48,148.69 L 499.44,147.07 L 495.33,145.45 L 491.14,143.84 L 486.89,142.25 L 482.56,140.67 L 478.16,139.10 L 473.71,137.55 L 469.18,136.02 L 464.60,134.50 L 459.96,133.00 L 455.26,131.52 L 450.50,130.07 L 445.70,128.63 L 440.84,127.22 L 435.94,125.84 L 430.99,124.48 L 425.99,123.15 L 420.95,121.84 L 415.88,120.57 L 410.76,119.33 L 405.61,118.11 L 400.43,116.94 L 395.22,115.80 L 389.97,114.69 L 384.70,113.62 L 379.41,112.59 L 374.09,111.60 L 368.76,110.64 L 363.40,109.74 L 358.03,108.87 L 352.64,108.05 L 347.25,107.27 L 341.84,106.54 L 336.43,105.86 L 331.01,105.23 L 325.58,104.64 L 320.16,104.11 L 314.73,103.64 L 309.31,103.21 L 303.90,102.85 L 298.49,102.53 L 293.09,102.28 L 287.71,102.09 L 282.33,101.95 L 276.98,101.88 L 271.64,101.87 L 266.32,101.92 L 261.02,102.04 L 255.75,102.23 L 250.50,102.48 L 245.28,102.80 L 240.10,103.20 L 234.94,103.66 L 229.82,104.20 L 224.74,104.81 L 219.70,105.50 L 214.70,106.26 L 209.74,107.10 L 204.83,108.03 L 199.96,109.03 L 195.15,110.11 L 190.38,111.28 L 185.67,112.54 L 181.02,113.87 L 176.43,115.30 L 171.89,116.82 L 167.42,118.42 L 163.01,120.12 L 158.71,121.90 L 155.43,123.25 L 152.24,124.71 L 149.19,126.23 L 146.29,127.83 L 143.52,129.50 L 140.90,131.25 L 138.42,133.07 L 136.07,134.95 L 133.87,136.91 L 131.80,138.94 L 129.87,141.04 L 128.08,143.20 L 126.43,145.42 L 124.92,147.71 L 123.54,150.06 L 122.31,152.47 L 121.21,154.93 L 120.25,157.45 L 119.42,160.01 L 118.73,162.62 L 118.17,165.28 L 117.75,167.97 L 117.45,170.71 L 117.28,173.49 L 117.23,176.30 L 117.31,179.14 L 117.50,182.02 L 117.82,184.92 L 118.25,187.86 L 118.79,190.82 L 119.45,193.82 L 120.22,196.84 L 121.10,199.88 L 122.08,202.95 L 123.17,206.04 L 124.36,209.16 L 125.65,212.29 L 127.04,215.45 L 128.53,218.63 L 130.12,221.83 L 131.80,225.04 L 133.58,228.27 L 135.45,231.52 L 137.41,234.78 L 139.46,238.06 L 141.60,241.35 L 143.82,244.65 L 146.13,247.97 L 148.53,251.29 L 151.00,254.63 L 153.56,257.97 L 156.20,261.32 L 158.91,264.67 L 161.70,268.03 L 164.57,271.39 L 167.51,274.76 L 170.53,278.13 L 173.62,281.50 L 176.77,284.86 L 180.00,288.23 L 183.29,291.59 L 186.65,294.95 L 190.08,298.31 L 193.56,301.66 L 197.11,305.00 L 200.72,308.33 L 204.39,311.66 L 208.12,314.97 L 211.90,318.27 L 215.74,321.56 L 219.62,324.82 Z" fill="url(#cyanGrad)" opacity="0.98"/>
    <path id="orbita-azul-superior" d="M 222,322 C 390,200 760,30 1035,66 C 1106,75 1134,128 1103,203" fill="none" stroke="url(#blueGrad)" stroke-width="9.5" stroke-linecap="round" opacity="0.98"/>
    <path id="orbita-azul-inferior" d="M 219.98,318.96 L 216.17,321.48 L 212.38,324.04 L 208.60,326.62 L 204.83,329.24 L 201.09,331.87 L 197.37,334.54 L 193.67,337.23 L 189.99,339.94 L 186.33,342.68 L 182.70,345.45 L 179.09,348.24 L 175.50,351.05 L 171.95,353.89 L 168.42,356.74 L 164.92,359.63 L 161.45,362.53 L 158.01,365.45 L 154.61,368.40 L 151.23,371.37 L 147.89,374.36 L 144.59,377.37 L 141.32,380.40 L 138.08,383.44 L 134.89,386.51 L 131.73,389.60 L 128.61,392.70 L 125.53,395.83 L 122.50,398.97 L 119.50,402.13 L 116.55,405.31 L 113.65,408.50 L 110.78,411.71 L 107.97,414.94 L 105.19,418.17 L 102.43,421.40 L 99.69,424.61 L 96.97,427.83 L 94.27,431.04 L 91.60,434.24 L 88.95,437.45 L 86.33,440.66 L 83.73,443.87 L 81.17,447.09 L 78.64,450.32 L 76.14,453.55 L 73.69,456.80 L 71.27,460.06 L 68.89,463.34 L 66.55,466.63 L 64.26,469.94 L 62.02,473.27 L 59.83,476.63 L 57.69,480.00 L 55.60,483.40 L 53.58,486.83 L 51.62,490.29 L 49.72,493.78 L 47.89,497.29 L 46.14,500.84 L 44.46,504.42 L 42.85,508.03 L 41.33,511.68 L 39.90,515.36 L 38.55,519.07 L 37.30,522.82 L 36.14,526.60 L 35.09,530.42 L 34.14,534.26 L 33.30,538.14 L 32.58,542.04 L 31.97,545.98 L 31.49,549.93 L 31.13,553.91 L 30.90,557.91 L 30.80,561.93 L 30.84,565.96 L 31.02,569.99 L 31.34,574.03 L 31.87,578.47 L 32.88,583.70 L 34.27,588.89 L 36.00,593.96 L 38.06,598.87 L 40.44,603.63 L 43.13,608.21 L 46.11,612.61 L 49.37,616.81 L 52.88,620.80 L 56.64,624.60 L 60.63,628.19 L 64.83,631.59 L 69.24,634.80 L 73.85,637.82 L 78.65,640.66 L 83.62,643.32 L 88.78,645.82 L 94.11,648.16 L 99.61,650.35 L 105.29,652.39 L 111.13,654.28 L 117.13,656.03 L 123.30,657.65 L 129.64,659.14 L 136.14,660.50 L 142.80,661.73 L 149.62,662.84 L 156.61,663.83 L 163.75,664.70 L 171.05,665.45 L 178.51,666.09 L 186.13,666.61 L 193.90,667.02 L 201.83,667.32 L 209.90,667.51 L 218.13,667.59 L 226.51,667.56 L 235.04,667.43 L 243.71,667.18 L 252.53,666.83 L 261.49,666.37 L 270.59,665.80 L 279.82,665.12 L 289.20,664.33 L 298.71,663.43 L 308.35,662.42 L 318.12,661.31 L 328.02,660.08 L 338.05,658.76 L 348.20,657.32 L 358.47,655.78 L 368.86,654.14 L 379.37,652.40 L 390.00,650.55 L 400.73,648.60 L 411.58,646.54 L 422.54,644.39 L 433.61,642.13 L 444.77,639.78 L 456.05,637.32 L 467.42,634.77 L 478.89,632.12 L 490.45,629.37 L 502.11,626.52 L 513.86,623.57 L 525.69,620.53 L 537.62,617.39 L 549.63,614.16 L 561.72,610.83 L 573.89,607.41 L 586.13,603.89 L 598.46,600.28 L 610.85,596.57 L 623.32,592.78 L 635.85,588.89 L 648.45,584.91 L 661.11,580.84 L 673.84,576.67 L 686.85,572.35 L 692.68,569.90 L 697.89,567.64 L 703.06,565.35 L 708.19,563.04 L 713.29,560.70 L 718.34,558.34 L 723.35,555.95 L 728.33,553.54 L 733.26,551.11 L 738.16,548.65 L 743.02,546.17 L 747.84,543.68 L 752.62,541.16 L 757.37,538.62 L 762.08,536.07 L 766.75,533.49 L 771.38,530.90 L 775.98,528.29 L 780.54,525.67 L 785.07,523.03 L 789.56,520.38 L 794.01,517.71 L 798.43,515.03 L 802.82,512.34 L 807.17,509.63 L 811.48,506.91 L 815.76,504.18 L 820.01,501.45 L 824.22,498.70 L 828.40,495.94 L 832.55,493.18 L 836.66,490.40 L 840.74,487.62 L 844.79,484.84 L 848.81,482.04 L 852.79,479.25 L 856.75,476.45 L 860.67,473.64 L 864.56,470.83 L 868.42,468.02 L 872.25,465.21 L 876.05,462.39 L 879.83,459.57 L 883.57,456.76 L 887.28,453.94 L 890.97,451.13 L 894.62,448.31 L 898.25,445.50 L 901.85,442.69 L 905.42,439.89 L 908.97,437.09 L 912.48,434.29 L 915.97,431.50 L 919.44,428.72 L 922.88,425.94 L 926.29,423.17 L 929.68,420.40 L 933.04,417.65 L 936.38,414.90 L 939.69,412.16 L 942.98,409.44 L 946.24,406.72 L 949.48,404.01 L 952.70,401.32 L 955.89,398.64 L 959.06,395.97 L 962.21,393.32 L 965.34,390.68 L 968.44,388.05 L 971.52,385.44 L 974.58,382.85 L 977.62,380.27 L 980.64,377.71 L 983.63,375.17 L 986.61,372.65 L 989.57,370.14 L 992.50,367.66 L 995.42,365.20 L 998.32,362.75 L 993.68,357.25 L 990.78,359.68 L 987.86,362.13 L 984.91,364.58 L 981.93,367.05 L 978.92,369.52 L 975.89,372.00 L 972.83,374.49 L 969.74,376.99 L 966.62,379.50 L 963.48,382.01 L 960.30,384.53 L 957.10,387.05 L 953.88,389.58 L 950.62,392.11 L 947.34,394.65 L 944.03,397.19 L 940.69,399.74 L 937.32,402.29 L 933.92,404.84 L 930.50,407.39 L 927.04,409.95 L 923.56,412.50 L 920.05,415.06 L 916.52,417.61 L 912.95,420.16 L 909.35,422.72 L 905.73,425.27 L 902.08,427.82 L 898.40,430.36 L 894.69,432.91 L 890.95,435.45 L 887.18,437.98 L 883.39,440.52 L 879.56,443.04 L 875.71,445.56 L 871.82,448.08 L 867.91,450.59 L 863.97,453.09 L 860.00,455.58 L 856.00,458.07 L 851.97,460.54 L 847.91,463.01 L 843.83,465.47 L 839.71,467.92 L 835.56,470.36 L 831.39,472.79 L 827.18,475.20 L 822.95,477.61 L 818.68,480.00 L 814.39,482.38 L 810.06,484.75 L 805.71,487.10 L 801.33,489.44 L 796.91,491.77 L 792.47,494.08 L 787.99,496.37 L 783.49,498.65 L 778.96,500.91 L 774.39,503.16 L 769.80,505.38 L 765.17,507.59 L 760.51,509.79 L 755.83,511.96 L 751.11,514.11 L 746.36,516.25 L 741.58,518.37 L 736.77,520.46 L 731.93,522.53 L 727.05,524.59 L 722.15,526.62 L 717.21,528.63 L 712.24,530.62 L 707.24,532.58 L 702.21,534.52 L 697.15,536.44 L 692.05,538.33 L 686.92,540.20 L 681.76,542.04 L 677.15,543.65 L 664.63,547.44 L 651.94,551.21 L 639.32,554.90 L 626.78,558.50 L 614.30,562.01 L 601.90,565.43 L 589.57,568.76 L 577.33,572.01 L 565.16,575.16 L 553.09,578.22 L 541.09,581.20 L 529.19,584.08 L 517.38,586.88 L 505.67,589.58 L 494.05,592.19 L 482.53,594.72 L 471.11,597.15 L 459.80,599.49 L 448.59,601.73 L 437.50,603.89 L 426.51,605.95 L 415.64,607.92 L 404.89,609.80 L 394.26,611.58 L 383.74,613.27 L 373.36,614.87 L 363.10,616.37 L 352.97,617.78 L 342.97,619.10 L 333.11,620.32 L 323.38,621.45 L 313.80,622.49 L 304.35,623.42 L 295.06,624.27 L 285.91,625.02 L 276.91,625.68 L 268.07,626.24 L 259.38,626.71 L 250.85,627.08 L 242.49,627.35 L 234.28,627.53 L 226.25,627.61 L 218.39,627.58 L 210.70,627.45 L 203.18,627.23 L 195.85,626.90 L 188.70,626.47 L 181.74,625.94 L 174.97,625.32 L 168.39,624.59 L 162.01,623.77 L 155.84,622.85 L 149.86,621.83 L 144.10,620.73 L 138.55,619.53 L 133.22,618.24 L 128.11,616.86 L 123.22,615.40 L 118.56,613.85 L 114.13,612.23 L 109.94,610.54 L 105.98,608.77 L 102.26,606.94 L 98.78,605.06 L 95.55,603.12 L 92.55,601.14 L 89.78,599.12 L 87.25,597.06 L 84.95,594.97 L 82.86,592.85 L 80.98,590.70 L 79.29,588.53 L 77.79,586.32 L 76.47,584.06 L 75.31,581.75 L 74.30,579.36 L 73.45,576.89 L 72.74,574.31 L 72.13,571.53 L 71.69,568.98 L 71.23,566.02 L 70.81,563.06 L 70.43,560.08 L 70.10,557.09 L 69.81,554.09 L 69.57,551.06 L 69.38,548.01 L 69.24,544.93 L 69.15,541.83 L 69.12,538.70 L 69.14,535.54 L 69.23,532.36 L 69.37,529.15 L 69.58,525.91 L 69.85,522.64 L 70.19,519.34 L 70.59,516.02 L 71.07,512.67 L 71.62,509.30 L 72.24,505.90 L 72.94,502.49 L 73.72,499.06 L 74.57,495.60 L 75.50,492.14 L 76.51,488.66 L 77.60,485.17 L 78.77,481.67 L 80.03,478.17 L 81.36,474.66 L 82.78,471.15 L 84.29,467.64 L 85.87,464.14 L 87.54,460.65 L 89.30,457.16 L 91.14,453.68 L 93.06,450.22 L 95.06,446.78 L 97.15,443.36 L 99.33,439.96 L 101.58,436.58 L 103.92,433.23 L 106.34,429.92 L 108.85,426.63 L 111.44,423.39 L 114.10,420.18 L 116.83,416.99 L 119.60,413.82 L 122.43,410.66 L 125.29,407.52 L 128.21,404.39 L 131.16,401.28 L 134.17,398.19 L 137.21,395.11 L 140.29,392.06 L 143.42,389.02 L 146.58,385.99 L 149.78,382.99 L 153.02,380.01 L 156.30,377.05 L 159.61,374.10 L 162.95,371.18 L 166.33,368.28 L 169.74,365.40 L 173.18,362.54 L 176.65,359.71 L 180.15,356.89 L 183.67,354.10 L 187.23,351.34 L 190.81,348.59 L 194.41,345.87 L 198.04,343.18 L 201.69,340.51 L 205.36,337.87 L 209.05,335.25 L 212.77,332.66 L 216.50,330.10 L 220.25,327.56 L 224.02,325.04 Z" fill="url(#blueGrad)" opacity="0.98"/>
    <path id="conector-seta" d="M 998.46,362.15 L 999.28,361.18 L 1000.13,360.18 L 1001.00,359.15 L 1001.88,358.09 L 1002.79,357.00 L 1003.72,355.89 L 1004.66,354.76 L 1005.63,353.60 L 1006.61,352.42 L 1007.61,351.21 L 1008.63,349.99 L 1009.66,348.74 L 1010.71,347.47 L 1011.77,346.18 L 1012.85,344.88 L 1013.94,343.55 L 1015.04,342.21 L 1016.15,340.86 L 1017.28,339.48 L 1018.42,338.10 L 1019.57,336.70 L 1020.73,335.28 L 1021.91,333.86 L 1023.09,332.42 L 1024.28,330.98 L 1025.48,329.52 L 1026.69,328.06 L 1027.90,326.59 L 1029.13,325.12 L 1030.36,323.64 L 1031.60,322.15 L 1032.84,320.66 L 1034.09,319.17 L 1035.35,317.68 L 1036.61,316.19 L 1037.87,314.70 L 1039.14,313.21 L 1040.41,311.72 L 1041.69,310.24 L 1042.97,308.76 L 1044.25,307.28 L 1045.53,305.81 L 1046.81,304.35 L 1048.09,302.89 L 1049.37,301.44 L 1050.65,300.01 L 1051.93,298.58 L 1053.21,297.16 L 1054.48,295.75 L 1055.75,294.36 L 1057.02,292.98 L 1054.98,291.02 L 1053.65,292.36 L 1052.32,293.71 L 1050.99,295.08 L 1049.65,296.45 L 1048.31,297.83 L 1046.97,299.23 L 1045.63,300.63 L 1044.28,302.04 L 1042.94,303.45 L 1041.59,304.87 L 1040.24,306.30 L 1038.90,307.73 L 1037.56,309.16 L 1036.22,310.60 L 1034.88,312.04 L 1033.54,313.47 L 1032.21,314.91 L 1030.88,316.35 L 1029.56,317.78 L 1028.24,319.21 L 1026.93,320.64 L 1025.63,322.06 L 1024.33,323.48 L 1023.04,324.89 L 1021.76,326.30 L 1020.49,327.70 L 1019.23,329.09 L 1017.98,330.47 L 1016.74,331.84 L 1015.51,333.20 L 1014.30,334.55 L 1013.10,335.89 L 1011.91,337.22 L 1010.74,338.53 L 1009.58,339.82 L 1008.44,341.11 L 1007.31,342.37 L 1006.21,343.62 L 1005.11,344.85 L 1004.04,346.06 L 1002.99,347.25 L 1001.95,348.42 L 1000.93,349.57 L 999.93,350.69 L 998.96,351.79 L 998.00,352.87 L 997.06,353.92 L 996.15,354.94 L 995.26,355.94 L 994.39,356.91 L 993.54,357.85 Z" fill="url(#connectorGrad)" opacity="0.98"/>
  </g>
  <g id="seta" filter="url(#soft)">
    <polygon points="1094,248 1014,270 1092,328" fill="#1d3b1f" opacity="0.26" transform="translate(3 3)"/>
    <polygon points="1094,248 1014,270 1092,328" fill="url(#arrowGrad)"/>
  </g>
  <g id="centro" filter="url(#whiteGlow)">
    <ellipse cx="620" cy="371" rx="91" ry="86" fill="#03070b" opacity="0.25"/>
    <ellipse cx="620" cy="365" rx="86" ry="82" fill="url(#nucleus)" stroke="#ffffff" stroke-width="1"/>
  </g>
  </svg>
  <!-- Palavra ORBITAL -->
  <svg x="20" y="212.15" width="300" height="30.84" viewBox="0 0 389.86 40.08">
    <defs>
    <style>
      .cls-1 {
        fill: #f4f4f5;
      }

      .cls-2 {
        fill: #f6f6f6;
      }

      .cls-3 {
        fill: #eaebec;
      }

      .cls-4 {
        fill: #f0f1f2;
      }

      .cls-5 {
        fill: #f1f2f3;
      }

      .cls-6 {
        fill: #f4f4f6;
      }
    </style>
  </defs>
  <g id="Camada_2-2" data-name="Camada 2">
    <g id="ORBITAL">
      <polygon id="L" class="cls-5" points="359.92 .55 359.92 34.46 389.86 34.46 389.86 39.45 354.93 39.45 354.93 .55 359.92 .55"/>
      <path id="A" class="cls-2" fill-rule="evenodd" d="M285.08,39.45 306.51,.55 313.11,.55 334.96,39.45 329.14,39.45 324.15,30.48 296.88,30.48 291.08,39.45 285.08,39.45ZM299.04,25.49 321.99,25.49 310.53,5.53 299.04,25.49Z"/>
      <polygon id="T" class="cls-6" points="234.17 .55 276.51 .55 276.51 5.54 258.34 5.54 258.34 39.45 252.35 39.45 252.35 5.54 234.17 5.54 234.17 .55"/>
      <rect id="I" class="cls-3" x="207.22" y=".55" width="5.99" height="38.89"/>
      <path id="B" class="cls-4" d="M175.29.55c9.48,1.3,10.84,13.4,3.99,18.93,6.06.82,6.19,11.26,3.88,15.36-.93,1.64-5.87,4.6-7.37,4.6h-34.43V.55H175.29ZM146.35,16.51h29.44c4.06-1.99,3.22-10.97-1-10.97h-28.44v10.97ZM146.35,34.46h29.44c5.49-2.31,4.14-12.96-1-12.96h-28.44v12.96Z"/>
      <path id="R" class="cls-1" d="M108.42.55c8.96,1.57,11.44,14.01,6.02,20.48l-8.01,4.94,10.97,13.47-6.98-.49-11.48-14.46h-20.46v14.96s-4.99,0-4.99,0V.55H108.42ZM78.48,19.5h29.44c5.05-3.52,5.04-10.44,0-13.96h-29.44v13.96Z"/>
      <path id="O" class="cls-1" d="M15.61.55C20.19-.01,32-.02,36.57.55c13.24,1.65,15.38,13.62,13.97,24.93-.87,7.03-6.09,12.32-12.92,13.51-9.71,1.7-29.65,2.67-34.8-7.22C-3.31,19.99.37,2.44,15.61.55ZM14.35,5.78c-12.11,2.17-12.72,27.13.74,28.71,4.43.52,15.59.53,20,0,14.61-1.76,14.17-27.42,1-28.97-4.59-.54-17.32-.54-21.74.26Z"/>
    </g>
  </g>
  </svg>
  <!-- Palavra ACADEMY -->
  <svg x="20" y="252.99" width="300" height="17.63" viewBox="0 0 386.24 22.7">
    <g id="Camada_2-2" data-name="Camada 2">
    <g id="ACADEMY">
      <path id="A-2" d="M9.92,1.33 L0.80,20.13 L0.80,21.55 L3.08,21.55 L5.36,17.56 L7.07,16.14 L15.63,16.14 L17.34,17.56 L18.76,21.27 L21.61,21.55 L21.90,20.98 L13.06,1.90 L12.21,1.05 Z M11.06,5.61 L11.92,5.89 L14.77,12.15 L14.20,13.58 L8.50,13.58 L7.93,13.01 L7.93,11.87 Z" fill="#079cff" fill-rule="evenodd"/>
      <path id="C" d="M78.05,4.00 C75.90,2.55 73.15,2.10 70.10,2.45 C64.55,3.05 60.85,6.65 60.85,11.30 C60.85,15.95 64.55,19.60 70.10,20.15 C73.25,20.45 76.05,19.85 78.15,18.20" fill="none" stroke="#079cff" stroke-width="3.05" stroke-linecap="butt" stroke-linejoin="round"/>
      <path id="A" d="M131.02,1.33 L121.90,20.13 L121.90,21.55 L124.18,21.55 L126.46,17.56 L128.17,16.14 L136.73,16.14 L138.44,17.56 L139.86,21.27 L142.71,21.55 L143.00,20.98 L134.16,1.90 L133.31,1.05 Z M132.16,5.61 L133.02,5.89 L135.87,12.15 L135.30,13.58 L129.60,13.58 L129.03,13.01 L129.03,11.87 Z" fill="#079cff" fill-rule="evenodd"/>
      <path id="D" d="M185.35,21.55 L185.35,1.05 L193.45,1.05 C199.50,1.05 204.05,5.35 204.05,11.30 C204.05,17.25 199.50,21.55 193.45,21.55 Z M188.40,4.10 L193.45,4.10 C197.45,4.10 201.00,6.95 201.00,11.30 C201.00,15.65 197.45,18.50 193.45,18.50 L188.40,18.50 Z" fill="#079cff" fill-rule="evenodd"/>
      <g id="E" fill="#079cff">
      <rect x="246.70" y="1.05" width="3.05" height="20.50" fill="#079cff"/>
      <rect x="246.70" y="1.05" width="15.80" height="3.05" fill="#079cff"/>
      <rect x="246.70" y="9.78" width="14.25" height="3.05" fill="#079cff"/>
      <rect x="246.70" y="18.50" width="15.80" height="3.05" fill="#079cff"/>
      </g>
      <g id="M" fill="none" stroke="#079cff" stroke-width="3.05" stroke-linecap="butt" stroke-linejoin="miter" stroke-miterlimit="10">
      <path d="M303.35,21.55 L303.35,1.05 L314.20,13.42 L325.05,1.05 L325.05,21.55"/>
      </g>
      <polygon id="Y-left-arm" points="365.75,1.05 369.65,1.05 377.00,13.40 374.60,15.10" fill="#079cff"/>
      <polygon id="Y-right-arm" points="382.25,1.05 386.15,1.05 377.30,15.10 374.90,13.40" fill="#079cff"/>
      <rect id="Y-stem" x="374.43" y="13.45" width="3.05" height="8.10" fill="#079cff"/>
    </g>
  </g>
  </svg>
</svg>
